<?xml version="1.0" standalone="no"?>
<!DOCTYPE svg PUBLIC "-//W3C//DTD SVG 20010904//EN"
 "http://www.w3.org/TR/2001/REC-SVG-20010904/DTD/svg10.dtd">
<svg version="1.0" xmlns="http://www.w3.org/2000/svg"
 width="700.000000pt" height="700.000000pt" viewBox="0 0 700.000000 700.000000"
 preserveAspectRatio="xMidYMid meet">
<metadata>
Created by potrace 1.14, written by Peter Selinger 2001-2017
</metadata>
<g transform="translate(0.000000,700.000000) scale(0.100000,-0.100000)"
fill="#000000" stroke="none">
<path d="M10 3505 l0 -3495 3495 0 3495 0 0 3495 0 3495 -3495 0 -3495 0 0
-3495z m2618 2278 c317 -256 616 -425 874 -495 282 -75 750 30 1466 329 14 6
-583 -784 -622 -824 -18 -19 -40 -23 -169 -34 -168 -13 -691 -7 -770 10 -64
14 -156 52 -223 92 -119 72 -293 258 -410 439 -39 61 -249 486 -285 578 -11
28 -23 36 139 -95z m-135 -150 c99 -213 108 -237 131 -358 41 -212 49 -299 43
-460 -7 -219 -46 -341 -163 -518 -120 -180 -313 -358 -477 -440 l-72 -36 -450
-25 c-248 -14 -490 -28 -540 -31 l-90 -6 130 67 c606 309 1013 628 1181 921
128 225 182 468 191 871 3 133 7 242 8 242 1 0 50 -102 108 -227z m2565 -243
c-14 -227 -14 -891 1 -1080 40 -506 105 -756 274 -1042 114 -193 265 -383 482
-607 l130 -134 -75 40 c-41 22 -174 92 -295 156 -406 212 -555 295 -575 319
-127 147 -513 709 -566 824 -66 141 -86 233 -91 404 -4 131 -2 171 16 260 12
58 32 125 44 150 22 44 656 884 663 878 1 -2 -2 -78 -8 -168z m-2075 -855
c107 -247 214 -492 236 -544 23 -51 40 -95 39 -96 -2 -1 -226 -14 -498 -29
-272 -14 -511 -28 -530 -31 l-35 -4 34 27 c204 158 381 378 460 566 59 142 75
231 75 428 1 139 3 172 12 155 7 -12 100 -224 207 -472z m139 242 c40 -26 106
-60 148 -76 121 -47 216 -56 597 -56 188 0 341 -1 340 -2 -59 -56 -853 -701
-858 -696 -3 5 -93 208 -199 453 -106 245 -203 469 -216 498 l-23 52 70 -62
c38 -35 102 -84 141 -111z m1127 -308 c-7 -45 -9 -130 -6 -214 6 -169 35 -290
100 -428 39 -82 216 -357 388 -602 46 -65 57 -86 39 -74 -14 8 -319 172 -678
364 -359 192 -651 352 -650 357 4 9 812 677 816 674 1 -2 -3 -37 -9 -77z
m-979 -686 c1 -5 -68 -265 -152 -580 l-152 -572 -37 105 c-77 219 -195 424
-339 590 -87 100 -246 247 -361 334 -44 33 -79 61 -77 61 2 1 248 16 548 34
300 18 551 33 558 34 6 0 12 -2 12 -6z m745 -346 c319 -170 596 -319 616 -331
l36 -21 -316 0 c-281 0 -329 -3 -436 -22 -294 -53 -490 -154 -759 -389 -76
-66 -98 -81 -93 -63 4 13 75 281 159 595 l153 572 30 -15 c16 -9 291 -155 610
-326z m-2022 252 c171 -88 469 -349 602 -529 72 -99 148 -233 200 -355 49
-115 115 -327 115 -373 1 -34 -203 -1162 -210 -1162 -3 0 -29 71 -59 158 -267
785 -509 1278 -739 1509 -206 208 -496 403 -910 615 -171 87 -188 98 -155 99
21 0 252 13 513 28 607 36 591 36 643 10z m2562 -709 c94 -6 219 -17 278 -25
l109 -14 231 -124 c128 -68 359 -191 514 -272 156 -82 281 -150 280 -152 -2
-1 -77 8 -168 22 -969 144 -1655 134 -2040 -31 -335 -143 -619 -423 -862 -849
-38 -66 -66 -111 -63 -100 3 11 44 231 90 490 l86 470 102 99 c252 242 462
376 673 431 220 57 453 74 770 55z"/>
</g>
</svg>
