<svg xmlns="http://www.w3.org/2000/svg" width="64" height="64"><g style="display:inline"><g style="display:inline"><path style="display:inline;fill:#1a9be5;fill-opacity:.550201;stroke-width:1.00118;stroke-miterlimit:5;stroke-dasharray:none" d="M198.84071 224.72809h77.360413v70.847229H198.84071z" transform="matrix(.8273 0 0 .90335 -164.41183667 -203.09698904)"/></g><g style="display:inline"><path style="display:inline;fill:#fff;fill-opacity:.550201;stroke:#000;stroke-width:1;stroke-linecap:butt;stroke-linejoin:miter;stroke-miterlimit:5;stroke-dasharray:none;stroke-opacity:1;marker-start:none;marker-mid:none;marker-end:none" d="M224.2781 233.62123c.42645 5.38525.53172 10.78991-2.46322 14.62117-4.41017 5.55354-16.66061 10.12704-16.66061 10.12704s11.43376 4.24683 15.51724 9.31035c4.08349 5.06352 8.16696 17.80399 8.16696 17.80399s3.17736-10.35947 12.02941-13.60571c8.11384-2.97553 27.77228.82982 27.77228.82982s-8.93054-6.17148-11.87065-12.86839c-2.94011-6.69692-1.30671-22.3775-1.30671-22.3775s-8.65699 3.92015-15.19057 4.41016c-6.53357.49002-15.99413-8.25093-15.99413-8.25093z" transform="matrix(.8273 0 0 .90335 -164.41183667 -203.09698904)"/><path d="m206.21826 258.27235 29.97049-1.5363M224.2781 233.62123c4.90151 9.19515 7.568 15.3259 11.25729 22.95148M255.29946 237.78868l-8.8253 10.62302-10.71601 8.11452M266.86967 271.85578l-8.21249-3.94348-22.79511-11.17625M228.83848 284.50374l2.77775-13.8908 4.24584-14.53025" style="display:inline;fill:none;stroke:#000;stroke-width:1px;stroke-linecap:butt;stroke-linejoin:miter;stroke-opacity:1" transform="matrix(.8273 0 0 .90335 -164.41183667 -203.09698904)"/><path d="M228.02178 240.89213c.21306 1.67416 2.07245 6.77696-.72048 10.98053-3.01023 4.53061-6.95647 5.68009-6.95647 5.68009s2.77677.98003 6.53357 4.73684c3.75681 3.7568 4.61999 8.90361 4.61999 8.90361s3.96475-4.03192 7.73116-5.31984c5.51947-1.88738 14.56431-.44999 14.56431-.44999s-1.05352-.75601-5.73429-7.29732c-3.62703-5.06874-1.09688-10.27745-1.09688-10.27745s-4.53348.64703-10.15092.15041c-5.21371-.46093-8.78999-7.10688-8.78999-7.10688z" style="display:inline;fill:none;stroke:#000;stroke-width:1px;stroke-linecap:butt;stroke-linejoin:bevel;stroke-opacity:1" transform="matrix(.8273 0 0 .90335 -164.41183667 -203.09698904)"/></g></g></svg>